#!OML:ASF X:\für Bonn\!DataBase\2005_08_11_Bastian_Final\c3d\Bastian.ASF
:FULLY-SPECIFIED
:DEGREES
142
root -0.152161 14.7423 6.23092 175.403 -8.69538 -178.029
lowerback 20.2177 -1.882 -0.81764
upperback 4.94996 -3.46781 -0.453883
thorax -5.90631 -2.01622 0.871009
lowerneck -11.1327 -6.6175 -3.01437
upperneck -8.20207 -9.48317 12.3001
head 0.0947937 -5.20206 4.18626
rclavicle -2.10712e-014 -1.19271e-014
rhumerus 68.678 13.6149 -9.80132
rradius 37.5199
rwrist -43.254
rhand -43.7917 -3.46091
rfingers 7.12502
rthumb -16.6207 -32.7692
lclavicle -2.10712e-014 -1.19271e-014
lhumerus 66.0231 -13.0857 -1.35232
lradius 32.2269
lwrist -1.89374
lhand -44.4202 9.79742
lfingers 7.12502
lthumb -17.2257 39.0539
rfemur -31.0097 -11.4024 25.0913
rtibia 81.8917
rfoot -35.3843 -8.3468
rtoes -1.52517
lfemur -32.7503 0.12589 -17.7535
ltibia 81.7198
lfoot -29.7712 -10.6455
ltoes -5.19395
143
root -0.154718 14.9328 6.20738 175.588 -8.78917 -178.161
lowerback 19.6849 -1.9001 -0.990833
upperback 4.90061 -3.49255 -0.444745
thorax -5.66898 -2.01831 0.958299
lowerneck -11.1026 -6.61686 -3.03714
upperneck -8.06822 -9.46921 12.2511
head 0.131089 -5.18154 4.17143
rclavicle -4.77083e-014 -4.77083e-015
rhumerus 68.7845 13.9929 -8.63616
rradius 37.9279
rwrist -44.171
rhand -44.012 -3.53374
rfingers 7.12502
rthumb -16.8327 -32.8242
lclavicle -4.77083e-014 -4.77083e-015
lhumerus 65.9745 -13.4509 -0.38248
lradius 32.1104
lwrist -2.83598
lhand -44.3794 9.71657
lfingers 7.12502
lthumb -17.1864 38.9765
rfemur -29.8217 -11.0437 24.9672
rtibia 79.4609
rfoot -34.7865 -8.71624
rtoes -1.862
lfemur -31.3496 -0.013431 -17.9207
ltibia 78.9258
lfoot -29.2277 -10.5192
ltoes -4.66676
144
root -0.157857 15.1185 6.18515 175.784 -8.90851 -178.294
lowerback 19.1419 -1.93488 -1.13629
upperback 4.85501 -3.53325 -0.449008
thorax -5.42326 -2.02916 1.01817
lowerneck -11.1239 -6.62195 -3.05284
upperneck -7.88776 -9.46614 12.2009
head 0.191947 -5.16317 4.15098
rclavicle 1.5704e-014 -8.74653e-015
rhumerus 68.9219 14.339 -7.34758
rradius 38.3709
rwrist -45.1913
rhand -44.3104 -3.64383
rfingers 7.12502
rthumb -17.12 -32.9096
lclavicle 1.5704e-014 -8.74653e-015
lhumerus 65.9316 -13.8115 0.568272
lradius 31.9664
lwrist -3.81144
lhand -44.3381 9.65487
lfingers 7.12502
lthumb -17.1467 38.9183
rfemur -28.6655 -10.6972 24.8426
rtibia 77.0527
rfoot -34.1867 -9.00912
rtoes -1.78072
lfemur -30.0002 -0.156813 -18.0898
ltibia 76.1638
lfoot -28.6672 -10.3221
ltoes -4.47699
145
root -0.161138 15.302 6.16221 175.961 -9.01845 -178.425
lowerback 18.6205 -1.96318 -1.28012
upperback 4.80318 -3.56407 -0.450793
thorax -5.19462 -2.03531 1.07819
lowerneck -11.1054 -6.62981 -3.06651
upperneck -7.70705 -9.4632 12.1332
head 0.244893 -5.14453 4.12564
rclavicle -8.24956e-015 -7.55382e-015
rhumerus 69.0543 14.7119 -6.00433
rradius 38.8345
rwrist -46.2488
rhand -44.6768 -3.78395
rfingers 7.12502
rthumb -17.4726 -33.0187
lclavicle -8.24956e-015 -7.55382e-015
lhumerus 65.9 -14.2043 1.41243
lradius 31.8597
lwrist -4.70576
lhand -44.2675 9.6423
lfingers 7.12502
lthumb -17.0787 38.9116
rfemur -27.4817 -10.3448 24.7138
rtibia 74.649
rfoot -33.5754 -9.2665
rtoes -1.74723
lfemur -28.6303 -0.269374 -18.2525
ltibia 73.4159
lfoot -28.1077 -10.1187
ltoes -4.45054
146
root -0.164905 15.4804 6.13951 176.136 -9.12865 -178.511
lowerback 18.1074 -2.00327 -1.37622
upperback 4.74887 -3.60016 -0.445969
thorax -4.97418 -2.04456 1.11944
lowerneck -11.1023 -6.63146 -3.05517
upperneck -7.49836 -9.45551 12.0537
head 0.307192 -5.12229 4.09059
rclavicle 2.70347e-014 -2.18663e-014
rhumerus 69.1808 15.126 -5.02581
rradius 39.1655
rwrist -46.9566
rhand -44.9902 -3.89855
rfingers 7.12502
rthumb -17.7742 -33.1062
lclavicle 2.70347e-014 -2.18663e-014
lhumerus 65.8396 -14.6048 2.24898
lradius 31.7567
lwrist -5.56621
lhand -44.1881 9.57112
lfingers 7.12502
lthumb -17.0023 38.847
rfemur -26.3129 -9.99251 24.6449
rtibia 72.2597
rfoot -32.8851 -9.57954
rtoes -1.67272
lfemur -27.2932 -0.362749 -18.3653
ltibia 70.6943
lfoot -27.4816 -9.93175
ltoes -4.4461
147
root -0.169385 15.6524 6.11889 176.311 -9.25585 -178.6
lowerback 17.6192 -2.05719 -1.47629
upperback 4.68363 -3.65372 -0.430292
thorax -4.7762 -2.0619 1.17918
lowerneck -11.0931 -6.63535 -3.07361
upperneck -7.27152 -9.44564 11.9685
head 0.375535 -5.09663 4.05925
rclavicle 6.16232e-015 2.18663e-014
rhumerus 69.3455 15.612 -4.35341
rradius 39.3696
rwrist -47.3369
rhand -45.2676 -4.08991
rfingers 7.12502
rthumb -18.0411 -33.2732
lclavicle 6.16232e-015 2.18663e-014
lhumerus 65.7515 -15.0345 3.11389
lradius 31.6018
lwrist -6.47541
lhand -44.1507 9.50835
lfingers 7.12502
lthumb -16.9663 38.7873
rfemur -25.1674 -9.65528 24.5698
rtibia 69.8961
rfoot -32.1401 -9.89398
rtoes -1.77254
lfemur -25.9779 -0.471088 -18.4837
ltibia 67.9889
lfoot -26.8087 -9.75778
ltoes -4.38522
148
root -0.173099 15.8191 6.09831 176.475 -9.38004 -178.663
lowerback 17.1437 -2.10136 -1.54642
upperback 4.62541 -3.69051 -0.415055
thorax -4.57886 -2.07217 1.21786
lowerneck -11.129 -6.64443 -3.06068
upperneck -7.02787 -9.44911 11.8748
head 0.455866 -5.07742 4.01635
rclavicle -1.98785e-014 -7.95139e-016
rhumerus 69.4529 16.1318 -4.07054
rradius 39.4128
rwrist -47.4068
rhand -45.4356 -4.22751
rfingers 7.12502
rthumb -18.2028 -33.3958
lclavicle -1.98785e-014 -7.95139e-016
lhumerus 65.6727 -15.4411 4.04093
lradius 31.4504
lwrist -7.45156
lhand -44.0701 9.39944
lfingers 7.12502
lthumb -16.8886 38.6851
rfemur -24.0285 -9.30044 24.5259
rtibia 67.559
rfoot -31.3503 -10.2301
rtoes -1.91597
lfemur -24.6843 -0.553115 -18.5682
ltibia 65.3127
lfoot -26.0825 -9.57324
ltoes -4.56488
149
root -0.177058 15.9789 6.07751 176.639 -9.50403 -178.724
lowerback 16.66 -2.15707 -1.60613
upperback 4.56582 -3.74071 -0.40967
thorax -4.37864 -2.08923 1.242
lowerneck -11.1654 -6.64792 -3.05994
upperneck -6.75832 -9.44467 11.8007
head 0.546151 -5.05278 3.98277
rclavicle 2.5842e-015 -1.07344e-014
rhumerus 69.5373 16.6703 -4.03665
rradius 39.3923
rwrist -47.2512
rhand -45.511 -4.42958
rfingers 7.12502
rthumb -18.2753 -33.5911
lclavicle 2.5842e-015 -1.07344e-014
lhumerus 65.6652 -15.8633 4.51289
lradius 31.3595
lwrist -7.94939
lhand -44.0003 9.35442
lfingers 7.12502
lthumb -16.8215 38.6458
rfemur -22.9175 -8.94352 24.4787
rtibia 65.2684
rfoot -30.5424 -10.5056
rtoes -1.90436
lfemur -23.4056 -0.633259 -18.6493
ltibia 62.6628
lfoot -25.2969 -9.40507
ltoes -4.60015
150
root -0.181928 16.1316 6.0555 176.817 -9.64685 -178.812
lowerback 16.167 -2.21644 -1.67896
upperback 4.48899 -3.79543 -0.409716
thorax -4.19034 -2.10732 1.26803
lowerneck -11.1482 -6.65177 -3.06846
upperneck -6.49846 -9.43677 11.7318
head 0.624627 -5.02723 3.95544
rclavicle 1.50082e-014 1.94809e-014
rhumerus 69.6488 17.2346 -3.97497
rradius 39.3346
rwrist -47.1766
rhand -45.5523 -4.61427
rfingers 7.12502
rthumb -18.3151 -33.772
lclavicle 1.50082e-014 1.94809e-014
lhumerus 65.775 -16.2773 4.37808
lradius 31.3826
lwrist -7.88453
lhand -43.9148 9.32794
lfingers 7.12502
lthumb -16.7392 38.6263
rfemur -21.8298 -8.59297 24.4032
rtibia 63.0298
rfoot -29.7541 -10.7936
rtoes -2.03751
lfemur -22.165 -0.717369 -18.7652
ltibia 60.049
lfoot -24.4746 -9.22978
ltoes -4.77701
151
root -0.186236 16.2753 6.03403 176.97 -9.79001 -178.851
lowerback 15.692 -2.2744 -1.72482
upperback 4.43312 -3.84609 -0.382956
thorax -3.98853 -2.12562 1.30583
lowerneck -11.1729 -6.66119 -3.10111
upperneck -6.25408 -9.43646 11.6716
head 0.707669 -5.00621 3.93424
rclavicle -1.89839e-014 3.97569e-015
rhumerus 69.7314 17.7364 -3.89267
rradius 39.325
rwrist -47.1408
rhand -45.5219 -4.89828
rfingers 7.12502
rthumb -18.2858 -34.0588
lclavicle -1.89839e-014 3.97569e-015
lhumerus 66.0293 -16.6288 3.66367
lradius 31.5042
lwrist -7.21293
lhand -43.7984 9.40473
lfingers 7.12502
lthumb -16.6272 38.7125
rfemur -20.7484 -8.21966 24.374
rtibia 60.8505
rfoot -28.9817 -11.0535
rtoes -1.85682
lfemur -20.9408 -0.790579 -18.8226
ltibia 57.4811
lfoot -23.6054 -9.07438
ltoes -4.97052
152
root -0.189299 16.4131 6.00935 177.133 -10.0107 -178.914
lowerback 15.1855 -2.35865 -1.79204
upperback 4.36897 -3.93275 -0.370177
thorax -3.77625 -2.16105 1.345
lowerneck -11.1938 -6.66136 -3.12925
upperneck -5.96168 -9.42416 11.6163
head 0.80516 -4.97635 3.91407
rclavicle 1.63003e-014 1.98785e-015
rhumerus 69.834 18.2161 -3.62836
rradius 39.3503
rwrist -47.2825
rhand -45.5059 -5.19557
rfingers 7.12502
rthumb -18.2704 -34.3575
lclavicle 1.63003e-014 1.98785e-015
lhumerus 66.3289 -17.0113 2.81211
lradius 31.6249
lwrist -6.43483
lhand -43.7096 9.49726
lfingers 7.12502
lthumb -16.5416 38.8122
rfemur -19.6946 -7.89053 24.3222
rtibia 58.7521
rfoot -28.2677 -11.2836
rtoes -1.60342
lfemur -19.7514 -0.919707 -18.9047
ltibia 54.9618
lfoot -22.7195 -8.93719
ltoes -5.1756
